Coordinates
version=1
nRows=17
nColumns=36
inDegrees=yes

Units are S.I. units (second, meters, Newtons, ...)
If the header above contains a line with 'inDegrees', this indicates whether rotational values are in degrees (yes) or radians (no).

endheader
time	pelvis_tilt	pelvis_list	pelvis_rotation	pelvis_tx	pelvis_ty	pelvis_tz	hip_flexion_r	hip_adduction_r	hip_rotation_r	knee_angle_r	knee_angle_r_beta	ankle_angle_r	subtalar_angle_r	mtp_angle_r	hip_flexion_l	hip_adduction_l	hip_rotation_l	knee_angle_l	knee_angle_l_beta	ankle_angle_l	subtalar_angle_l	mtp_angle_l	lumbar_extension	lumbar_bending	lumbar_rotation	arm_flex_r	arm_add_r	arm_rot_r	elbow_flex_r	pro_sup_r	arm_flex_l	arm_add_l	arm_rot_l	elbow_flex_l	pro_sup_l
      6.75000000	     -8.24491490	     -1.01348804	      3.14777962	      0.27546841	      0.66769859	      0.03140142	     64.35402214	    -13.72109337	     -0.72219027	     82.46634433	      1.43930923	     36.13000029	     -8.88258865	     -7.49999987	     65.70860816	    -12.64967208	      1.93741172	     79.64497665	      1.39006708	     26.69853437	    -11.14530685	     -7.49999987	    -36.76611522	     -3.49411231	      4.68233453	     86.05874436	      6.98629375	     67.58086523	    132.44630947	     96.63417185	     87.28624311	     13.06027018	     76.65068975	    121.12239847	     81.88504354
      6.76666670	     -9.47101328	     -0.85580151	      2.97552518	      0.26863022	      0.66233674	      0.02727761	     66.98466274	    -13.86249114	     -0.10916468	     83.75136546	      1.46173708	     36.32655176	     -8.73419225	     -7.49999987	     67.96118065	    -12.36598799	      1.90329059	     80.76977451	      1.40969850	     26.75777219	    -11.48828880	     -7.49999987	    -36.29703958	     -3.40831869	      4.52336664	     86.75003221	      7.68093204	     68.16193125	    132.69441628	     96.85612999	     87.28098832	     13.18536569	     76.94635880	    121.60557286	     82.16255652
      6.78333330	    -10.67441068	     -0.78037442	      3.04858428	      0.27022788	      0.65588719	      0.02776624	     69.12523177	    -14.10849713	      0.31011186	     84.77383255	      1.47958250	     36.83300420	     -8.44612097	     -7.49999987	     69.98317265	    -12.07014905	      2.13798358	     81.61982095	      1.42453461	     26.74312209	    -11.76481841	     -7.49999987	    -35.42913478	     -3.00956122	      4.68676989	     86.42264703	      8.23509509	     68.56538677	    132.44663639	     96.94376188	     86.50871818	     13.31236833	     77.07627373	    122.11882302	     82.89400415
      6.80000000	    -10.81878695	     -0.66967837	      3.23336459	      0.27557751	      0.65983845	      0.03045807	     69.27827454	    -14.16601547	      0.47088972	     85.14366663	      1.48603732	     36.72434414	     -8.51653268	     -7.49999987	     70.10048189	    -11.96477691	      2.18382359	     81.78916261	      1.42749018	     26.46385873	    -11.48388957	     -7.49999987	    -35.75431098	     -2.92287437	      4.80158043	     86.33333450	      8.53605808	     68.76323794	    132.44289734	     96.99112803	     86.18207245	     13.60371585	     77.31215417	    122.24759835	     82.97341126
      6.81666670	    -11.19330004	     -0.61709004	      2.94596190	      0.27553813	      0.65649864	      0.03056777	     69.85148767	    -13.95043054	      0.69065785	     85.35910997	      1.48979752	     36.43590156	     -8.70667705	     -7.49999987	     70.23982124	    -12.23871923	      2.11350759	     81.70609426	      1.42604036	     26.66564651	    -11.10991483	     -7.49999987	    -35.60370435	     -3.12594536	      4.67809187	     86.15170139	      9.17069582	     69.61246645	    132.21334961	     94.12746009	     86.01453115	     13.60799123	     77.64874138	    122.29889349	     81.49143692
      6.83333330	    -11.73071236	     -0.42043654	      2.72472719	      0.27548239	      0.65333801	      0.03106903	     70.81481023	    -13.91285091	      1.04581424	     85.69786045	      1.49570983	     36.28921724	     -8.47700374	     -7.49999987	     70.70939181	    -12.41673135	      1.92450996	     81.72878844	      1.42643645	     26.67945311	    -11.14702988	     -7.49999987	    -35.24609412	     -3.45826094	      4.69628218	     85.48586440	      9.44190676	     70.38340908	    131.87768094	     99.27968200	     85.04076693	     13.21925221	     78.07705412	    122.39870674	     86.93450794
      6.85000000	    -11.95214154	     -0.26387899	      2.64185175	      0.26935056	      0.65137762	      0.02708020	     71.61293976	    -14.07095154	      1.28872516	     85.72905811	      1.49625433	     35.81713710	     -8.47895748	     -7.49999987	     71.35242529	    -12.18710316	      1.66981586	     81.90430526	      1.42949980	     26.65601999	    -11.45353398	     -7.49999987	    -35.63661237	     -3.50829771	      4.80413016	     85.42533980	      9.33319073	     70.83934510	    131.74769856	     99.27002221	     85.25401403	     13.20054424	     78.07829133	    122.36308639	     86.95142292
      6.86666670	    -12.07774872	     -0.13162190	      2.45608043	      0.26911082	      0.65067085	      0.02699665	     72.20636781	    -14.07688717	      1.68991254	     85.77105657	      1.49698734	     35.57711726	     -8.48761124	     -7.49999987	     71.80921707	    -12.15806574	      1.54728924	     82.16332387	      1.43402053	     26.39065850	    -11.66673088	     -7.49999987	    -36.07523757	     -3.55148298	      5.10074500	     85.56760629	      9.09181945	     71.23586525	    131.28685045	     98.19665327	     85.16215715	     13.11951481	     78.15133620	    122.56607108	     86.54209205
      6.88333330	    -12.25293219	      0.04012595	      2.24773854	      0.26998209	      0.64680290	      0.02722422	     72.89677418	    -14.15350519	      1.96083435	     85.96100172	      1.50030251	     35.37904790	     -8.60163720	     -7.49999987	     72.33168213	    -12.17032856	      1.44536546	     82.71619522	      1.44366995	     26.44778018	    -11.72056574	     -7.49999987	    -36.34168168	     -3.57029507	      5.36130301	     85.90365156	      9.08169915	     71.13607148	    130.65235633	     97.24528063	     85.40486823	     13.15095387	     77.89941001	    122.75640990	     86.21425463
      6.90000000	    -11.99389650	      0.16141942	      1.95151777	      0.27524841	      0.64744768	      0.02428601	     72.55922987	    -14.19729312	      2.16475550	     85.82449874	      1.49792008	     35.32448704	     -8.38465959	     -7.49999987	     72.05412281	    -12.36694973	      1.17576629	     83.19316313	      1.45199461	     26.70956829	    -11.62417233	     -7.49999987	    -36.59585800	     -3.50243622	      5.59651771	     85.70834274	      8.91227391	     71.51048778	    130.58399740	     97.26337375	     84.69903281	     12.78318455	     77.55606774	    122.64188751	     86.30224305
      6.91666670	    -11.85035574	      0.10644486	      1.87309784	      0.27500820	      0.64414174	      0.02435444	     72.41798423	    -14.36199084	      2.15933534	     86.15755719	      1.50373305	     35.46121268	     -8.17802826	     -7.49999987	     72.19199220	    -12.46374090	      1.16079901	     83.87673492	      1.46392519	     27.06846097	    -11.59488261	     -7.49999987	    -36.62173584	     -3.21722763	      5.77379019	     85.62462318	      9.12639270	     71.58964125	    130.05329743	     92.91729040	     84.06997936	     12.41102304	     77.10655209	    122.50457752	     83.43224636
      6.93333330	    -12.00441342	      0.09367899	      1.60608723	      0.27388518	      0.64097427	      0.02406819	     73.02581611	    -14.33462227	      2.18576300	     86.88499254	      1.51642919	     35.54555593	     -7.98496098	     -7.49999987	     72.70761797	    -12.65588194	      1.08329635	     84.64550084	      1.47734269	     27.41343044	    -11.58780802	     -7.49999987	    -36.58672591	     -3.12089832	      5.81649447	     85.88462541	      9.64750895	     71.66581849	    129.77571859	     90.54078169	     83.69630771	     12.55605446	     77.44022296	    122.54526156	     81.96099722
      6.95000000	    -12.50060200	     -0.01375368	      1.68129513	      0.27481687	      0.63757419	      0.02318455	     73.86883761	    -14.58109944	      2.06262722	     87.57718979	      1.52851031	     35.93571698	     -7.48969114	     -7.49999987	     73.59836163	    -12.61813862	      1.15585065	     85.22487850	      1.48745473	     27.50837871	    -11.85051198	     -7.49999987	    -35.86889773	     -2.85237582	      5.75840890	     85.23289646	      9.69300913	     71.41816306	    129.36332316	     96.32561416	     83.30166695	     12.51714767	     77.38420799	    122.13457710	     87.96588767
      6.96666670	    -13.05789715	      0.01781705	      1.50448252	      0.27473418	      0.63431588	      0.02285403	     74.78052963	    -14.59003334	      2.25371994	     88.12975430	      1.53815438	     36.39127549	     -6.96079940	     -7.49999987	     74.39263752	    -12.70335893	      1.09591420	     85.72329286	      1.49615371	     27.65286616	    -12.02643547	     -7.49999987	    -35.14985674	     -2.69433295	      6.10173135	     84.90475103	      9.57600114	     71.25236280	    129.20759991	     94.44459958	     82.78350775	     12.54150676	     77.63492578	    122.57799246	     86.65805826
      6.98333330	    -13.29319705	      0.06990434	      1.49123261	      0.27655523	      0.63717171	      0.02287802	     75.11704017	    -14.68267127	      2.36292452	     88.43309455	      1.54344867	     36.49983272	     -6.54862978	     -7.49999987	     74.50572370	    -12.70104674	      0.95055590	     85.74386621	      1.49651278	     27.55784674	    -12.21706710	     -7.49999987	    -34.79226761	     -2.61737531	      6.26770052	     84.68440938	      9.39239711	     71.43561266	    129.39421650	     93.80106610	     82.53786372	     12.26975010	     77.84413740	    123.18312250	     86.21569052
      7.00000000	    -13.39592547	      0.39430968	      1.36348948	      0.27911784	      0.64671885	      0.02147525	     74.86961498	    -14.80969308	      2.50730399	     87.99355232	      1.53577721	     35.93089028	     -6.66649064	     -7.49999987	     73.58800574	    -12.54793438	      0.35090185	     84.77639734	      1.47962726	     27.08489839	    -12.49949408	     -7.49999987	    -34.79739212	     -2.80468354	      5.88612840	     83.78498683	      9.83080112	     72.75762516	    129.46039212	     91.59009904	     81.57282166	     11.66965285	     77.97838128	    123.63059536	     84.76620870
      7.01666670	    -13.27955459	      0.59822593	      1.16252921	      0.28077243	      0.65041074	      0.02158531	     74.13186382	    -14.81625495	      2.48883335	     87.20672095	      1.52204441	     35.43259989	     -6.84003660	     -7.49999987	     72.41751233	    -12.57127283	     -0.11242988	     83.73126711	      1.46138630	     26.48986854	    -13.14161099	     -7.49999987	    -35.23639890	     -3.12130096	      5.88762011	     83.31898137	      9.95475811	     74.05255299	    129.74050790	     90.41419706	     80.54679121	     11.56923290	     78.19754627	    123.92887592	     83.64137874
